PathFileType	4	(X/Y/Z)	 2.8Hzhigh3min.trc
DataRate	CameraRate	NumFrames	NumMarkers	Units	OrigDataRate	OrigDataStartFrame	OrigNumFrames
200	200	8	35	m	200	1	1000
Frame#	Time	C7			LSH			RSH			MAN			RASI			LASI			HIPR			HIPL			RPSI			LPSI			COX			RTHI1			RTHI2			RTHI3			RTHI4			RSHA1			RSHA2			RSHA3			RSHA4			RHEEL			RMET5			RMET1			RTOE			LTHI1			LTHI2			LTHI3			LTHI4			LSHA1			LSHA2			LSHA3			LSHA4			LHEEL			LMET5			LMET1			LTOE			
		X1	Y1	Z1	X2	Y2	Z2	X3	Y3	Z3	X4	Y4	Z4	X5	Y5	Z5	X6	Y6	Z6	X7	Y7	Z7	X8	Y8	Z8	X9	Y9	Z9	X10	Y10	Z10	X11	Y11	Z11	X12	Y12	Z12	X13	Y13	Z13	X14	Y14	Z14	X15	Y15	Z15	X16	Y16	Z16	X17	Y17	Z17	X18	Y18	Z18	X19	Y19	Z19	X20	Y20	Z20	X21	Y21	Z21	X22	Y22	Z22	X23	Y23	Z23	X24	Y24	Z24	X25	Y25	Z25	X26	Y26	Z26	X27	Y27	Z27	X28	Y28	Z28	X29	Y29	Z29	X30	Y30	Z30	X31	Y31	Z31	X32	Y32	Z32	X33	Y33	Z33	X34	Y34	Z34	X35	Y35	Z35	
1	0.0050	-0.313502	1.399405	-0.575651	-0.234924	1.404927	-0.736139	-0.268248	1.387341	-0.406521	-0.185686	1.348273	-0.562484	-0.179884	0.969420	-0.448545	-0.165935	0.955105	-0.672628	-0.245706	1.015755	-0.424636	-0.220012	1.017155	-0.704303	-0.332311	0.990881	-0.518605	-0.324348	0.988264	-0.618135	-0.334170	0.999205	-0.563440	-0.244693	0.757031	-0.379924	-0.215963	0.704749	-0.379072	-0.157844	0.734353	-0.386383	-0.181388	0.790916	-0.388873	-0.259182	0.372441	-0.376628	-0.280641	0.335702	-0.383965	-0.226039	0.313037	-0.395604	-0.209284	0.349737	-0.392058	-0.399959	0.121864	-0.441916	-0.268714	0.030135	-0.393734	-0.240149	0.036044	-0.471503	-0.215300	0.028709	-0.464138	-0.231525	0.758016	-0.737620	-0.210029	0.700523	-0.733367	-0.149707	0.718287	-0.718574	-0.162478	0.777455	-0.721347	-0.288471	0.351307	-0.726454	-0.306396	0.314724	-0.725103	-0.247221	0.293323	-0.724819	-0.236682	0.336140	-0.726706	-0.410628	0.114671	-0.694432	-0.279626	0.031217	-0.734462	-0.245199	0.037059	-0.663698	-0.223311	0.028099	-0.662228	
2	0.0100	-0.313931	1.393934	-0.575573	-0.234831	1.399800	-0.735997	-0.268290	1.382024	-0.406201	-0.185364	1.342745	-0.562218	-0.180260	0.963989	-0.447874	-0.166531	0.950049	-0.673090	-0.246871	1.009358	-0.424183	-0.221006	1.010700	-0.704612	-0.333694	0.984397	-0.518703	-0.325699	0.981834	-0.618361	-0.334863	0.992949	-0.564099	-0.245324	0.751282	-0.380181	-0.216244	0.699180	-0.379051	-0.158364	0.729132	-0.385500	-0.182108	0.785509	-0.388308	-0.258571	0.368276	-0.375695	-0.280475	0.331851	-0.382945	-0.225660	0.308630	-0.396019	-0.208624	0.344972	-0.392370	-0.402209	0.118712	-0.441925	-0.269138	0.029626	-0.393232	-0.240432	0.035968	-0.471454	-0.215189	0.028615	-0.464204	-0.231715	0.751956	-0.737768	-0.209773	0.694606	-0.733469	-0.149487	0.712855	-0.719204	-0.162625	0.771890	-0.722157	-0.288487	0.347711	-0.726653	-0.306696	0.311442	-0.725175	-0.247699	0.289449	-0.724980	-0.236786	0.332205	-0.727058	-0.412596	0.111516	-0.694465	-0.280240	0.030747	-0.734897	-0.245436	0.037012	-0.663935	-0.223284	0.028066	-0.662287	
3	0.0150	-0.314361	1.388919	-0.575492	-0.234811	1.394866	-0.735962	-0.268424	1.376870	-0.405672	-0.184969	1.337540	-0.561851	-0.180696	0.958819	-0.447152	-0.167075	0.945298	-0.673616	-0.248094	1.003032	-0.423661	-0.221961	1.004329	-0.704887	-0.335133	0.977945	-0.518708	-0.327186	0.975546	-0.618502	-0.335179	0.986934	-0.565000	-0.246005	0.746352	-0.380500	-0.216696	0.694419	-0.379156	-0.159000	0.724683	-0.384849	-0.182884	0.780945	-0.387814	-0.257932	0.364189	-0.374901	-0.280183	0.328039	-0.382352	-0.225453	0.304513	-0.396643	-0.208151	0.340571	-0.392878	-0.404346	0.115686	-0.442219	-0.269578	0.029199	-0.392958	-0.240657	0.035898	-0.471467	-0.215108	0.028525	-0.464214	-0.232180	0.747434	-0.737751	-0.210011	0.690199	-0.733689	-0.149684	0.708687	-0.719967	-0.163012	0.767630	-0.722918	-0.288577	0.344284	-0.726872	-0.306965	0.308212	-0.725297	-0.248069	0.285852	-0.724922	-0.236928	0.328573	-0.727193	-0.414385	0.108564	-0.694256	-0.280798	0.030393	-0.735141	-0.245696	0.037001	-0.664091	-0.223303	0.028009	-0.662332	
4	0.0200	-0.314762	1.384090	-0.575394	-0.234799	1.390021	-0.735954	-0.268576	1.371809	-0.405111	-0.184564	1.332456	-0.561481	-0.181146	0.953759	-0.446406	-0.167601	0.940668	-0.674135	-0.249313	0.996760	-0.423122	-0.222929	0.998024	-0.705170	-0.336537	0.971579	-0.518725	-0.328623	0.969391	-0.618556	-0.335514	0.981074	-0.565752	-0.246679	0.741645	-0.380855	-0.217158	0.689866	-0.379290	-0.159625	0.720417	-0.384233	-0.183645	0.776577	-0.387366	-0.257384	0.360274	-0.374176	-0.279920	0.324303	-0.381880	-0.225267	0.300510	-0.397298	-0.207740	0.336332	-0.393456	-0.406412	0.112741	-0.442570	-0.270026	0.028798	-0.392710	-0.240874	0.035832	-0.471485	-0.215030	0.028439	-0.464217	-0.232749	0.743150	-0.737739	-0.210375	0.685989	-0.733892	-0.149991	0.704682	-0.720768	-0.163473	0.763533	-0.723661	-0.288710	0.340917	-0.727062	-0.307266	0.305024	-0.725385	-0.248465	0.282328	-0.724839	-0.237112	0.325006	-0.727298	-0.416143	0.105646	-0.693914	-0.281366	0.030060	-0.735338	-0.245939	0.036988	-0.664231	-0.223314	0.027955	-0.662382	
5	0.0250	-0.315112	1.379739	-0.575259	-0.234826	1.385401	-0.736019	-0.268782	1.366971	-0.404433	-0.184123	1.327699	-0.561060	-0.181630	0.948993	-0.445604	-0.168087	0.936374	-0.674670	-0.250574	0.990629	-0.422544	-0.223911	0.991893	-0.705448	-0.337886	0.965440	-0.518718	-0.330027	0.963546	-0.618449	-0.335730	0.975607	-0.566395	-0.247376	0.737601	-0.381267	-0.217720	0.685945	-0.379508	-0.160295	0.716730	-0.383769	-0.184412	0.772840	-0.386999	-0.256940	0.356593	-0.373642	-0.279653	0.320716	-0.381768	-0.225212	0.296812	-0.398077	-0.207493	0.332488	-0.394153	-0.408324	0.109965	-0.443136	-0.270488	0.028474	-0.392603	-0.241053	0.035770	-0.471538	-0.214965	0.028361	-0.464191	-0.233574	0.739799	-0.737643	-0.211118	0.682671	-0.734127	-0.150624	0.701433	-0.721670	-0.164153	0.760211	-0.724371	-0.288953	0.337729	-0.727203	-0.307612	0.301945	-0.725430	-0.248861	0.279057	-0.724623	-0.237384	0.321696	-0.727265	-0.417765	0.102895	-0.693301	-0.281921	0.029807	-0.735392	-0.246169	0.036989	-0.664317	-0.223333	0.027899	-0.662435	
6	0.0300	-0.315363	1.375916	-0.575072	-0.234871	1.381050	-0.736124	-0.268999	1.362435	-0.403706	-0.183673	1.323284	-0.560615	-0.182126	0.944591	-0.444740	-0.168521	0.932471	-0.675170	-0.251837	0.984787	-0.422007	-0.224923	0.986062	-0.705693	-0.339102	0.959725	-0.518696	-0.331253	0.958184	-0.618145	-0.336093	0.970647	-0.566638	-0.248070	0.734137	-0.381752	-0.218330	0.682551	-0.379796	-0.160971	0.713476	-0.383409	-0.185138	0.769583	-0.386736	-0.256714	0.353256	-0.373381	-0.279496	0.317382	-0.381979	-0.225281	0.293455	-0.398929	-0.207417	0.329065	-0.394923	-0.410037	0.107411	-0.443878	-0.270959	0.028206	-0.392587	-0.241203	0.035712	-0.471611	-0.214901	0.028289	-0.464152	-0.234647	0.736975	-0.737485	-0.212172	0.679834	-0.734326	-0.151532	0.698584	-0.722648	-0.165041	0.757316	-0.725073	-0.289332	0.334754	-0.727220	-0.308063	0.299052	-0.725347	-0.249351	0.276032	-0.724344	-0.237787	0.318639	-0.727142	-0.419269	0.100296	-0.692397	-0.282490	0.029610	-0.735324	-0.246351	0.036987	-0.664355	-0.223325	0.027855	-0.662503	
7	0.0350	-0.315489	1.372732	-0.574805	-0.234922	1.377061	-0.736247	-0.269233	1.358286	-0.402960	-0.183224	1.319300	-0.560160	-0.182625	0.940645	-0.443828	-0.168911	0.929062	-0.675616	-0.253163	0.979335	-0.421470	-0.225977	0.980747	-0.705901	-0.340123	0.954665	-0.518651	-0.332301	0.953511	-0.617685	-0.336400	0.966399	-0.566632	-0.248776	0.731261	-0.382293	-0.218990	0.679727	-0.380158	-0.161654	0.710740	-0.383133	-0.185858	0.766864	-0.386538	-0.256728	0.350420	-0.373451	-0.279496	0.314410	-0.382518	-0.225515	0.290539	-0.399837	-0.207544	0.326168	-0.395769	-0.411506	0.105113	-0.444841	-0.271431	0.028023	-0.392670	-0.241309	0.035658	-0.471707	-0.214829	0.028231	-0.464106	-0.235969	0.734633	-0.737281	-0.213519	0.677447	-0.734456	-0.152712	0.696138	-0.723663	-0.166157	0.754828	-0.725762	-0.289892	0.332082	-0.727093	-0.308654	0.296428	-0.725106	-0.249962	0.273351	-0.723990	-0.238360	0.315925	-0.726934	-0.420626	0.097921	-0.691194	-0.283083	0.029481	-0.735130	-0.246490	0.036985	-0.664349	-0.223302	0.027821	-0.662578	
8	0.0400	-0.315466	1.370224	-0.574449	-0.234962	1.373520	-0.736330	-0.269452	1.354604	-0.402255	-0.182802	1.315815	-0.559697	-0.183092	0.937260	-0.442909	-0.169248	0.926224	-0.675986	-0.254509	0.974523	-0.421004	-0.227050	0.976206	-0.706023	-0.340886	0.950485	-0.518583	-0.333123	0.949698	-0.617120	-0.336638	0.962993	-0.566419	-0.249501	0.728925	-0.382844	-0.219707	0.677406	-0.380573	-0.162366	0.708451	-0.382922	-0.186570	0.764607	-0.386383	-0.256996	0.348024	-0.373854	-0.279700	0.311890	-0.383356	-0.225902	0.288113	-0.400754	-0.207845	0.323788	-0.396594	-0.412701	0.103104	-0.445994	-0.271896	0.027916	-0.392837	-0.241372	0.035602	-0.471825	-0.214747	0.028184	-0.464064	-0.237516	0.732662	-0.737089	-0.215098	0.675403	-0.734516	-0.154117	0.694025	-0.724665	-0.167486	0.752679	-0.726458	-0.290649	0.329801	-0.726774	-0.309421	0.294168	-0.724652	-0.250731	0.271084	-0.723574	-0.239124	0.313620	-0.726650	-0.421822	0.095806	-0.689742	-0.283694	0.029403	-0.734829	-0.246581	0.036979	-0.664305	-0.223262	0.027795	-0.662660	
